<svg width="48" height="48" viewBox="0 0 48 48" fill="none" xmlns="http://www.w3.org/2000/svg">
<path d="M39.9923 3.99902H7.99914C5.79048 3.99902 4 5.7895 4 7.99817V15.9964C4 18.2051 5.79048 19.9956 7.99914 19.9956H39.9923C42.2009 19.9956 43.9914 18.2051 43.9914 15.9964V7.99817C43.9914 5.7895 42.2009 3.99902 39.9923 3.99902Z" stroke="#FB2C36" stroke-width="3.99914" stroke-linecap="round" stroke-linejoin="round"/>
<path d="M39.9923 27.9941H7.99914C5.79048 27.9941 4 29.7846 4 31.9933V39.9916C4 42.2002 5.79048 43.9907 7.99914 43.9907H39.9923C42.2009 43.9907 43.9914 42.2002 43.9914 39.9916V31.9933C43.9914 29.7846 42.2009 27.9941 39.9923 27.9941Z" stroke="#FB2C36" stroke-width="3.99914" stroke-linecap="round" stroke-linejoin="round"/>
<path d="M11.998 11.9971H12.018" stroke="#FB2C36" stroke-width="3.99914" stroke-linecap="round" stroke-linejoin="round"/>
<path d="M11.998 35.9922H12.018" stroke="#FB2C36" stroke-width="3.99914" stroke-linecap="round" stroke-linejoin="round"/>
</svg>
